<svg width="333" height="421" viewBox="0 0 333 421" fill="none" xmlns="http://www.w3.org/2000/svg">
<path d="M27.1719 149.116L27.1738 149.119L27.998 149.854L30.5703 246.4C33.4851 267.444 38.2472 281.702 45.5771 293.795C52.9314 305.927 62.9658 316.048 76.7705 328.731L114.929 356.088L134.008 369.767L153.087 383.444L154.152 384.206V421L52.0693 349.387L52.0322 349.361L51.9668 349.319L51.9102 349.27L51.875 349.239C35.0183 335.529 22.928 323.718 14.626 309.147C6.30806 294.548 1.91632 277.399 0.0126953 253.203L0.0078125 253.153L0 253.091V124.957L27.1719 149.116ZM127.892 29.3916C200.721 99.6054 256.626 124.094 330.315 134.48L332.511 134.789V243.005L332.49 243.119L332.471 243.229L332.468 243.227C325.573 282.971 314.176 312.703 291.563 339.582C269.018 366.381 235.477 390.163 184.688 418.332L182.051 419.795L181.051 416.948C165.794 373.559 152.486 344.088 136.901 321.414C122.379 300.287 105.809 284.96 83.6299 269.782C85.6912 279.034 91.3419 289.254 102.81 307.706L107.886 315.871L99.4307 311.291C76.6618 298.952 60.7619 286.54 51.2285 266.915C41.7481 247.398 38.7491 221.118 40.7725 181.479L41.0068 176.835L44.7939 179.533L45.8164 180.297C50.9151 184.297 55.8115 190.831 59.417 196.277C61.37 199.228 63.001 201.946 64.1426 203.927C64.7138 204.918 65.1623 205.728 65.4707 206.291C65.5485 206.433 65.6173 206.561 65.6777 206.672L66.2227 206.564V207.981L66.4609 209.111L66.4443 209.113C66.597 209.887 66.8128 210.988 67.0684 212.322C67.5873 215.032 68.2755 218.719 68.9473 222.619C69.6183 226.515 70.2774 230.648 70.7383 234.241C71.059 236.742 71.2928 239.083 71.3535 240.927C91.7762 247.447 106.981 254.173 121.372 265.028C135.598 275.759 148.892 290.423 165.69 312.58C201.543 268.776 223.184 248.675 261.09 240.715C260.787 227.63 263.929 219.716 266.312 207.869L266.348 207.697L266.383 207.518L266.467 207.354L266.549 207.197C269.657 201.151 271.666 197.904 275.733 192.771L275.783 192.705L275.848 192.626L275.923 192.556L275.987 192.496C280.478 188.21 283.468 185.923 289.013 182.067L292.295 179.779L292.977 183.72C293.588 187.234 293.657 192.723 293.452 198.844C293.245 205.031 292.749 212.082 292.168 218.836C291.04 231.941 289.569 244.04 289.195 246.744C289.199 247.069 289.174 247.371 289.133 247.62C289.1 247.817 289.058 248.019 289.008 248.223L288.839 248.832C288.594 249.65 288.227 250.623 287.767 251.702C286.842 253.869 285.472 256.641 283.753 259.779C280.312 266.062 275.401 273.954 269.675 281.653C263.959 289.338 257.362 296.925 250.535 302.526C243.789 308.061 236.398 312.005 229.173 311.595L224.796 311.346L227.178 307.662C235.614 294.651 239.284 289.053 241.86 284.292C244.152 280.057 245.567 276.515 248.726 268.852C248.204 269.255 247.644 269.707 247.046 270.201C241.403 274.871 233.018 283.043 224.185 292.207C215.37 301.351 206.182 311.406 198.956 319.788C195.341 323.981 192.231 327.74 189.911 330.745C188.751 332.248 187.805 333.544 187.095 334.599C186.703 335.181 186.409 335.662 186.193 336.04L197.691 372.841C227.077 356.518 239.925 347.264 258.151 331.397C273.051 316.905 282.224 305.44 288.396 293.71C294.562 281.992 297.821 269.853 300.688 253.86C304.89 212.002 306.276 190.107 303.396 161.91C259.517 149.263 227.15 137.717 199.189 122.919C171.33 108.173 147.937 90.2509 121.89 64.9648C80.7905 88.105 57.2458 100.34 7.82031 108.188L2.9209 108.938L0 109.371V79.0234L1.83105 78.4863C59.7887 61.4793 83.8559 50.4377 124.945 28.9678L126.572 28.1172L127.892 29.3916ZM165.703 140.203C194.853 161.362 205.782 185.826 204.423 206.958L204.348 207.969C202.559 229.444 188.008 247.97 165.638 256.601C141.506 246.589 129.442 227.312 129.335 205.758C129.229 184.235 141.065 160.018 165.703 140.203ZM284.131 247C284.134 247.02 284.14 247.051 284.148 247.085C284.152 247.099 284.175 247.202 284.23 247.321C284.25 247.362 284.334 247.551 284.524 247.725C284.628 247.809 284.902 247.956 285.089 248.019C285.121 247.92 285.154 247.825 285.182 247.734C285.276 247.42 285.334 247.175 285.363 246.995C284.171 247.526 285.243 246.839 285.375 246.803L284.131 247ZM165.658 171.989C153.359 189.719 147.703 202.265 147.753 212.825C147.803 223.262 153.457 232.388 165.678 243.257C176.739 234.168 183.264 226.063 184.063 215.767C184.875 205.306 179.855 191.853 165.658 171.989ZM169.679 1.13965C230.28 45.7893 265.305 62.8656 330.51 77.167L331.508 77.3857L332.511 77.6045V108.285L329.438 107.639C286.084 98.4793 254.366 89.0444 226.869 75.3477C199.343 61.636 176.174 43.7167 149.817 17.752L147.732 15.6963L168.131 0L169.679 1.13965Z" fill="url(#paint0_linear_3_387)"/>
<defs>
<linearGradient id="paint0_linear_3_387" x1="-1292.5" y1="188.601" x2="-1292.5" y2="1890.48" gradientUnits="userSpaceOnUse">
<stop stop-color="#70E4F9"/>
<stop offset="0.278846" stop-color="#0C05CE"/>
</linearGradient>
</defs>
</svg>
